# xmcd CD database file
# Copyright (C) 1996 Ti Kan
#
# Track frame offsets:
#	150
#	14735
#	34495
#	49267
#	66637
#	79112
#	93705
#	109227
#	122645
#	139710
#	157887
# Disc length: 2403 seconds
#
# Revision: 3
# Processed by: cddbd v1.4PL0 Copyright (c) Steve Scherf et al.
# Submitted via: CDCOPY 4.900
#
DISCID=9f09610b
DTITLE=Joe Diffie - Mr. Christmas
DYEAR=1900
DGENRE=
TTITLE0=Mr. Christmas
TTITLE1=The Christmas Song (Chestnuts Roasting On An Open Fire)
TTITLE2=Leroy the Redneck Raindeer
TTITLE3=Have Yourself a Merry Little Christmas
TTITLE4=Let It Snow, Let It Snow, Let It Snow
TTITLE5=Wrap Me in Your Love
TTITLE6=All Because of a Baby Boy
TTITLE7=Silent Night
TTITLE8=Praise and Alleluia to the Savior
TTITLE9=Magazine Angels
TTITLE10=O Holy Night
EXTD=
EXTT0=
EXTT1=
EXTT2=
EXTT3=
EXTT4=
EXTT5=
EXTT6=
EXTT7=
EXTT8=
EXTT9=
EXTT10=
PLAYORDER=
